<?xml version="1.0" encoding="UTF-8" standalone="no"?>
<svg width="62px" height="46px" viewBox="0 0 62 46" version="1.1" xmlns="http://www.w3.org/2000/svg" xmlns:xlink="http://www.w3.org/1999/xlink">
    <!-- Generator: Sketch 50 (54983) - http://www.bohemiancoding.com/sketch -->
    <title>card</title>
    <desc>Created with Sketch.</desc>
    <defs></defs>
    <g id="Page-1" stroke="none" stroke-width="1" fill="none" fill-rule="evenodd">
        <g id="CanExchange/Payment-Method" transform="translate(-691.000000, -467.000000)">
            <g id="card" transform="translate(691.000000, 467.000000)">
                <g id="shopping-store">
                    <path d="M17.1034023,45.9749421 L59.8619688,45.9749421 C61.0427539,45.9749421 61.9998789,45.0181421 61.9998789,43.8377579 L61.9998789,18.1913053 C61.9998789,17.0109211 61.0427539,16.0541211 59.8619688,16.0541211 L17.1034023,16.0541211 C15.9226172,16.0541211 14.9654922,17.0109211 14.9654922,18.1913053 L14.9654922,43.8377579 C14.9654922,45.0180211 15.9226172,45.9749421 17.1034023,45.9749421 Z" id="Shape" fill="#A0D2F0" fill-rule="nonzero"></path>
                    <path d="M17.1034023,16.0541211 C15.9226172,16.0541211 14.9654922,17.0109211 14.9654922,18.1913053 L14.9654922,32.0831842 L44.8964766,32.0831842 C47.2579258,32.0831842 49.1722969,30.1694632 49.1722969,27.8088158 L49.1722969,16.0541211 L17.1034023,16.0542421 L17.1034023,16.0541211 Z" id="Shape" fill="#87BEE1" fill-rule="nonzero"></path>
                    <g id="Group" transform="translate(20.222656, 32.078947)" fill="#8F96AC" fill-rule="nonzero">
                        <path d="M25.7428359,2.14142105 L20.398,2.14142105 C19.807668,2.14142105 19.3289844,1.6629 19.3289844,1.07276842 C19.3289844,0.482636842 19.807668,0.00411578947 20.398,0.00411578947 L25.7428359,0.00411578947 C26.333168,0.00411578947 26.8118516,0.482636842 26.8118516,1.07276842 C26.8118516,1.6629 26.333168,2.14142105 25.7428359,2.14142105 Z" id="Shape"></path>
                        <path d="M6.50152344,2.14142105 L1.1566875,2.14142105 C0.566355469,2.14142105 0.087671875,1.6629 0.087671875,1.07276842 C0.087671875,0.482636842 0.566355469,0.00411578947 1.1566875,0.00411578947 L6.50152344,0.00411578947 C7.09185547,0.00411578947 7.57053906,0.482636842 7.57053906,1.07276842 C7.57041797,1.6629 7.09185547,2.14142105 6.50152344,2.14142105 Z" id="Shape"></path>
                        <path d="M35.3634922,2.14142105 L30.0186562,2.14142105 C29.4283242,2.14142105 28.9496406,1.6629 28.9496406,1.07276842 C28.9496406,0.482636842 29.4283242,0.00411578947 30.0186562,0.00411578947 L35.3634922,0.00411578947 C35.9538242,0.00411578947 36.4325078,0.482636842 36.4325078,1.07276842 C36.4325078,1.6629 35.9539453,2.14142105 35.3634922,2.14142105 Z" id="Shape"></path>
                        <path d="M16.1221797,2.14142105 L10.7773438,2.14142105 C10.1870117,2.14142105 9.70832812,1.6629 9.70832812,1.07276842 C9.70832812,0.482636842 10.1870117,0.00411578947 10.7773438,0.00411578947 L16.1221797,0.00411578947 C16.7125117,0.00411578947 17.1911953,0.482636842 17.1911953,1.07276842 C17.1911953,1.6629 16.7125117,2.14142105 16.1221797,2.14142105 Z" id="Shape"></path>
                        <path d="M16.1221797,10.6901579 L11.8463594,10.6901579 C11.2560273,10.6901579 10.7773437,10.2116368 10.7773437,9.62150526 C10.7773437,9.03137368 11.2560273,8.55285263 11.8463594,8.55285263 L16.1221797,8.55285263 C16.7125117,8.55285263 17.1911953,9.03137368 17.1911953,9.62150526 C17.1911953,10.2117579 16.7125117,10.6901579 16.1221797,10.6901579 Z" id="Shape"></path>
                        <path d="M12.9152539,6.41578947 L11.8462383,6.41578947 C11.2559063,6.41578947 10.7772227,5.93726842 10.7772227,5.34713684 C10.7772227,4.75700526 11.2559063,4.27848421 11.8462383,4.27848421 L12.9152539,4.27848421 C13.5055859,4.27848421 13.9842695,4.75700526 13.9842695,5.34713684 C13.9842695,5.93726842 13.5055859,6.41578947 12.9152539,6.41578947 Z" id="Shape"></path>
                        <path d="M18.2600898,6.41578947 L17.1910742,6.41578947 C16.6007422,6.41578947 16.1220586,5.93726842 16.1220586,5.34713684 C16.1220586,4.75700526 16.6007422,4.27848421 17.1910742,4.27848421 L18.2600898,4.27848421 C18.8504219,4.27848421 19.3291055,4.75700526 19.3291055,5.34713684 C19.3291055,5.93726842 18.8504219,6.41578947 18.2600898,6.41578947 Z" id="Shape"></path>
                        <path d="M31.0876719,10.6901579 L20.398,10.6901579 C19.807668,10.6901579 19.3289844,10.2116368 19.3289844,9.62150526 C19.3289844,9.03137368 19.807668,8.55285263 20.398,8.55285263 L31.0876719,8.55285263 C31.6780039,8.55285263 32.1566875,9.03137368 32.1566875,9.62150526 C32.1566875,10.2117579 31.6780039,10.6901579 31.0876719,10.6901579 Z" id="Shape"></path>
                    </g>
                    <ellipse id="Oval" fill="#FF6464" fill-rule="nonzero" cx="21.3793437" cy="39.5633895" rx="3.20692578" ry="3.20583684"></ellipse>
                    <ellipse id="Oval" fill="#FFD782" fill-rule="nonzero" cx="25.6551641" cy="39.5633895" rx="3.20692578" ry="3.20583684"></ellipse>
                    <path d="M22.4482383,39.5633895 C22.4482383,38.6177263 22.8656484,37.7764105 23.5172539,37.1896684 C24.1687383,37.7764105 24.5862695,38.6177263 24.5862695,39.5633895 C24.5862695,40.5090526 24.1688594,41.3503684 23.5172539,41.9371105 C22.8655273,41.3503684 22.4482383,40.5090526 22.4482383,39.5633895 Z" id="Shape" fill="#FFA05A" fill-rule="nonzero"></path>
                    <rect id="Rectangle-path" fill="#707487" fill-rule="nonzero" x="14.9654922" y="19.2598368" width="47.0345078" height="4.27436842"></rect>
                    <rect id="Rectangle-path" fill="#5B5D6E" fill-rule="nonzero" x="14.9654922" y="19.2598368" width="34.2069258" height="4.27436842"></rect>
                    <path d="M44.8965977,29.9458789 L2.13791016,29.9458789 C0.957125,29.9458789 0,28.9890789 0,27.8086947 L0,2.16224211 C0,0.981857895 0.957125,0.0250578947 2.13791016,0.0250578947 L44.8964766,0.0250578947 C46.0772617,0.0250578947 47.0343867,0.981857895 47.0343867,2.16224211 L47.0343867,27.8086947 C47.0345078,28.9889579 46.0772617,29.9458789 44.8965977,29.9458789 Z" id="Shape" fill="#B4E1FA" fill-rule="nonzero"></path>
                    <g id="Group" transform="translate(5.328125, 15.978947)" fill="#AFB9D2" fill-rule="nonzero">
                        <path d="M10.7063828,2.21235789 L16.0512187,2.21235789 C16.6415508,2.21235789 17.1202344,1.73383684 17.1202344,1.14370526 C17.1202344,0.553573684 16.6415508,0.0750526316 16.0512187,0.0750526316 L10.7063828,0.0750526316 C10.1160508,0.0750526316 9.63736719,0.553573684 9.63736719,1.14370526 C9.63736719,1.73383684 10.1160508,2.21235789 10.7063828,2.21235789 Z" id="Shape"></path>
                        <path d="M29.9476953,2.21235789 L35.2925312,2.21235789 C35.8828633,2.21235789 36.3615469,1.73383684 36.3615469,1.14370526 C36.3615469,0.553573684 35.8828633,0.0750526316 35.2925312,0.0750526316 L29.9476953,0.0750526316 C29.3573633,0.0750526316 28.8786797,0.553573684 28.8786797,1.14370526 C28.8788008,1.73383684 29.3573633,2.21235789 29.9476953,2.21235789 Z" id="Shape"></path>
                        <path d="M1.08572656,2.21235789 L6.4305625,2.21235789 C7.02089453,2.21235789 7.49957813,1.73383684 7.49957813,1.14370526 C7.49957813,0.553573684 7.02089453,0.0750526316 6.4305625,0.0750526316 L1.08572656,0.0750526316 C0.495394531,0.0750526316 0.0167109375,0.553573684 0.0167109375,1.14370526 C0.0167109375,1.73383684 0.495273438,2.21235789 1.08572656,2.21235789 Z" id="Shape"></path>
                        <path d="M20.3270391,2.21235789 L25.671875,2.21235789 C26.262207,2.21235789 26.7408906,1.73383684 26.7408906,1.14370526 C26.7408906,0.553573684 26.262207,0.0750526316 25.671875,0.0750526316 L20.3270391,0.0750526316 C19.736707,0.0750526316 19.2580234,0.553573684 19.2580234,1.14370526 C19.2580234,1.73383684 19.736707,2.21235789 20.3270391,2.21235789 Z" id="Shape"></path>
                    </g>
                    <g id="Group" transform="translate(18.164062, 3.147368)" fill="#EFF2FA" fill-rule="nonzero">
                        <path d="M1.07737109,2.22071053 L16.0428633,2.22071053 C16.6331953,2.22071053 17.1118789,1.74218947 17.1118789,1.15205789 C17.1118789,0.561926316 16.6331953,0.0834052632 16.0428633,0.0834052632 L1.07737109,0.0834052632 C0.487039062,0.0834052632 0.00835546875,0.561926316 0.00835546875,1.15205789 C0.00835546875,1.74218947 0.487039062,2.22071053 1.07737109,2.22071053 Z" id="Shape"></path>
                        <path d="M7.49110156,6.49507895 L16.0428633,6.49507895 C16.6331953,6.49507895 17.1118789,6.01655789 17.1118789,5.42642632 C17.1118789,4.83629474 16.6331953,4.35777368 16.0428633,4.35777368 L7.49110156,4.35777368 C6.90076953,4.35777368 6.42208594,4.83629474 6.42208594,5.42642632 C6.42208594,6.01667895 6.90076953,6.49507895 7.49110156,6.49507895 Z" id="Shape"></path>
                    </g>
                    <g id="Group" transform="translate(9.566406, 20.215789)" fill="#AFB9D2" fill-rule="nonzero">
                        <path d="M16.0887578,6.52437368 L20.3645781,6.52437368 C20.9549102,6.52437368 21.4335938,6.04585263 21.4335938,5.45572105 C21.4335938,4.86558947 20.9549102,4.38706842 20.3645781,4.38706842 L16.0887578,4.38706842 C15.4984258,4.38706842 15.0197422,4.86558947 15.0197422,5.45572105 C15.0197422,6.04585263 15.4984258,6.52437368 16.0887578,6.52437368 Z" id="Shape"></path>
                        <path d="M19.2956836,2.24988421 L20.3646992,2.24988421 C20.9550313,2.24988421 21.4337148,1.77136316 21.4337148,1.18123158 C21.4337148,0.5911 20.9550313,0.112578947 20.3646992,0.112578947 L19.2956836,0.112578947 C18.7053516,0.112578947 18.226668,0.5911 18.226668,1.18123158 C18.226668,1.77148421 18.7053516,2.24988421 19.2956836,2.24988421 Z" id="Shape"></path>
                        <path d="M13.9508477,2.24988421 L15.0198633,2.24988421 C15.6101953,2.24988421 16.0888789,1.77136316 16.0888789,1.18123158 C16.0888789,0.5911 15.6101953,0.112578947 15.0198633,0.112578947 L13.9508477,0.112578947 C13.3605156,0.112578947 12.881832,0.5911 12.881832,1.18123158 C12.881832,1.77148421 13.3605156,2.24988421 13.9508477,2.24988421 Z" id="Shape"></path>
                        <path d="M1.12326562,6.52437368 L11.8129375,6.52437368 C12.4032695,6.52437368 12.8819531,6.04585263 12.8819531,5.45572105 C12.8819531,4.86558947 12.4032695,4.38706842 11.8129375,4.38706842 L1.12326562,4.38706842 C0.532933594,4.38706842 0.05425,4.86558947 0.05425,5.45572105 C0.05425,6.04585263 0.532933594,6.52437368 1.12326562,6.52437368 Z" id="Shape"></path>
                    </g>
                    <ellipse id="Oval" fill="#FF6464" fill-rule="nonzero" cx="36.3448359" cy="23.5343263" rx="3.20692578" ry="3.20583684"></ellipse>
                    <ellipse id="Oval" fill="#FFD782" fill-rule="nonzero" cx="40.6206562" cy="23.5343263" rx="3.20692578" ry="3.20583684"></ellipse>
                    <path d="M37.4138516,23.5343263 C37.4138516,24.4799895 37.8312617,25.3213053 38.4828672,25.9080474 C39.1343516,25.3213053 39.5518828,24.4799895 39.5518828,23.5343263 C39.5518828,22.5886632 39.1344727,21.7473474 38.4828672,21.1606053 C37.8311406,21.7473474 37.4138516,22.5885421 37.4138516,23.5343263 Z" id="Shape" fill="#FFA05A" fill-rule="nonzero"></path>
                    <path d="M11.7585664,13.9169368 L6.41385156,13.9169368 C5.82351953,13.9169368 5.34483594,13.4384158 5.34483594,12.8482842 L5.34483594,9.64244737 C5.34483594,9.05231579 5.82351953,8.57379474 6.41385156,8.57379474 L11.7586875,8.57379474 C12.3490195,8.57379474 12.8277031,9.05231579 12.8277031,9.64244737 L12.8277031,12.8482842 C12.827582,13.4384158 12.3488984,13.9169368 11.7585664,13.9169368 Z" id="Shape" fill="#FFC36E" fill-rule="nonzero"></path>
                    <path d="M12.827582,10.7111 L12.827582,9.64244737 C12.827582,9.05231579 12.3488984,8.57379474 11.7585664,8.57379474 L7.48274609,8.57379474 L7.48274609,13.9168158 L10.6896719,13.9168158 L10.6896719,11.7796316 C10.6896719,11.1895 11.1683555,10.7109789 11.7586875,10.7109789 L12.827582,10.7109789 L12.827582,10.7111 Z" id="Shape" fill="#FFD782" fill-rule="nonzero"></path>
                    <ellipse id="Oval" fill="#FF6464" fill-rule="nonzero" cx="40.6206562" cy="6.43661053" rx="3.20692578" ry="3.20583684"></ellipse>
                </g>
            </g>
        </g>
    </g>
</svg>